<?xml version="1.0" encoding="UTF-8" standalone="no"?>
<!-- Generator: Adobe Illustrator 19.0.0, SVG Export Plug-In . SVG Version: 6.00 Build 0)  -->

<svg
   xmlns:dc="http://purl.org/dc/elements/1.1/"
   xmlns:cc="http://creativecommons.org/ns#"
   xmlns:rdf="http://www.w3.org/1999/02/22-rdf-syntax-ns#"
   xmlns:svg="http://www.w3.org/2000/svg"
   xmlns="http://www.w3.org/2000/svg"
   xmlns:xlink="http://www.w3.org/1999/xlink"
   xmlns:sodipodi="http://sodipodi.sourceforge.net/DTD/sodipodi-0.dtd"
   xmlns:inkscape="http://www.inkscape.org/namespaces/inkscape"
   version="1.1"
   id="Layer_1"
   x="0px"
   y="0px"
   viewBox="0 0 580 580"
   xml:space="preserve"
   sodipodi:docname="clowdr.svg"
   width="580"
   height="580"
   inkscape:version="0.92.1 r"
   inkscape:export-filename="/Users/gkiar/code/gkiar/clowdr.github.io/images/source/clowdr.png"
   inkscape:export-xdpi="96"
   inkscape:export-ydpi="96"><metadata
     id="metadata4247"><rdf:RDF><cc:Work
         rdf:about=""><dc:format>image/svg+xml</dc:format><dc:type
           rdf:resource="http://purl.org/dc/dcmitype/StillImage" /><dc:title></dc:title></cc:Work></rdf:RDF></metadata><defs
     id="defs4245"><linearGradient
       inkscape:collect="always"
       id="linearGradient5036"><stop
         style="stop-color:#cccccc;stop-opacity:1;"
         offset="0"
         id="stop5032" /><stop
         style="stop-color:#cccccc;stop-opacity:0;"
         offset="1"
         id="stop5034" /></linearGradient><mask
       maskUnits="userSpaceOnUse"
       id="mask4664"><g
         transform="matrix(1.0188105,0,0,1.4881429,-12.005501,-256.05417)"
         id="g4726"><g
           id="g4670"><path
             inkscape:connector-curvature="0"
             style="fill:#e67332"
             d="M 37.77,235.016 V 11.87 C 37.77,5.314 43.085,0 49.641,0 v 0 c 3.149,0 6.167,1.251 8.393,3.477 l 101.441,101.441 z"
             id="path4666" /><path
             inkscape:connector-curvature="0"
             style="fill:#e67332"
             d="M 474.229,235.016 V 11.87 C 474.229,5.314 468.914,0 462.359,0 v 0 c -3.149,0 -6.167,1.251 -8.393,3.477 L 352.525,104.918 Z"
             id="path4668" /></g><path
           inkscape:connector-curvature="0"
           style="fill:#ff914b"
           d="M 491.016,276.984 C 491.016,406.78 385.796,512 256,512 126.204,512 20.984,406.779 20.984,276.984 20.984,147.189 107.662,58.754 256,58.754 c 148.338,0 235.016,88.433 235.016,218.23 z"
           id="path4672" /><path
           inkscape:connector-curvature="0"
           style="fill:#ffffff"
           d="m 309.115,345.328 c -21.997,-4.719 -42.222,4.946 -53.115,21.348 -10.893,-16.402 -31.118,-26.067 -53.115,-21.348 -18.884,4.051 -34.105,19.356 -38.068,38.258 -6.831,32.576 17.841,61.266 49.216,61.266 14.021,0 26.694,-5.736 35.821,-14.984 3.452,-3.498 8.839,-3.498 12.291,0 9.127,9.247 21.801,14.984 35.822,14.984 31.374,0 56.047,-28.69 49.216,-61.265 -3.965,-18.902 -19.185,-34.208 -38.068,-38.259 z"
           id="path4674" /><g
           id="g4688"><path
             inkscape:connector-curvature="0"
             style="fill:#e67332"
             d="m 222.257,355.646 23.497,32.896 c 5.021,7.03 15.469,7.03 20.49,0 l 23.497,-32.896 c 5.952,-8.333 -0.004,-19.908 -10.245,-19.908 h -46.995 c -10.239,0 -16.196,11.574 -10.244,19.908 z"
             id="path4676" /><path
             inkscape:connector-curvature="0"
             style="fill:#e67332"
             d="m 306.361,62.483 v 71.812 c 0,9.271 7.516,16.787 16.787,16.787 9.271,0 16.787,-7.516 16.787,-16.787 V 69.762 c -10.689,-3.037 -21.874,-5.487 -33.574,-7.279 z"
             id="path4678" /><path
             inkscape:connector-curvature="0"
             style="fill:#e67332"
             d="m 256,58.754 c -5.698,0 -11.272,0.175 -16.787,0.433 v 117.075 c 0,9.271 7.516,16.787 16.787,16.787 9.271,0 16.787,-7.516 16.787,-16.787 V 59.187 C 267.272,58.929 261.697,58.754 256,58.754 Z"
             id="path4680" /><path
             inkscape:connector-curvature="0"
             style="fill:#e67332"
             d="m 172.066,69.762 v 64.533 c 0,9.271 7.516,16.787 16.787,16.787 9.271,0 16.787,-7.516 16.787,-16.787 V 62.483 c -11.702,1.792 -22.887,4.242 -33.574,7.279 z"
             id="path4682" /><circle
             style="fill:#e67332"
             cx="104.918"
             cy="352.52499"
             r="33.574001"
             id="circle4684" /><circle
             style="fill:#e67332"
             cx="407.082"
             cy="352.52499"
             r="33.574001"
             id="circle4686" /></g><g
           transform="translate(0,-13.073047)"
           id="g4694"><circle
             style="fill:#464655"
             cx="348.328"
             cy="268.59"
             r="33.574001"
             id="circle4690" /><circle
             style="fill:#464655"
             cx="163.672"
             cy="268.59"
             r="33.574001"
             id="circle4692" /></g><g
           id="g4696" /><g
           id="g4698" /><g
           id="g4700" /><g
           id="g4702" /><g
           id="g4704" /><g
           id="g4706" /><g
           id="g4708" /><g
           id="g4710" /><g
           id="g4712" /><g
           id="g4714" /><g
           id="g4716" /><g
           id="g4718" /><g
           id="g4720" /><g
           id="g4722" /><g
           id="g4724" /></g></mask><linearGradient
       inkscape:collect="always"
       xlink:href="#linearGradient5036"
       id="linearGradient5038"
       x1="101.67667"
       y1="516.60162"
       x2="555.03503"
       y2="514.20923"
       gradientUnits="userSpaceOnUse" /></defs><sodipodi:namedview
     pagecolor="#ffffff"
     bordercolor="#666666"
     borderopacity="1"
     objecttolerance="10"
     gridtolerance="10"
     guidetolerance="10"
     inkscape:pageopacity="0"
     inkscape:pageshadow="2"
     inkscape:window-width="1419"
     inkscape:window-height="808"
     id="namedview4243"
     showgrid="false"
     fit-margin-top="0"
     fit-margin-left="0"
     fit-margin-right="0"
     fit-margin-bottom="0"
     inkscape:zoom="0.8359833"
     inkscape:cx="285.95472"
     inkscape:cy="279.42935"
     inkscape:window-x="257"
     inkscape:window-y="117"
     inkscape:window-maximized="0"
     inkscape:current-layer="Layer_1" /><rect
     id="rect5030"
     width="580"
     height="580"
     x="0"
     y="2.6645353e-14"
     style="fill:url(#linearGradient5038);stroke-width:0.98953128;fill-opacity:1" /><g
     id="g4999"
     transform="matrix(0.70057068,0,0,0.70057068,115.12988,162.18405)"><g
       transform="matrix(1.0709056,0,0,1.0709056,-24.997714,-75.432562)"
       id="g4401"><path
         id="path4397"
         d="M 37.77,235.016 V 11.87 C 37.77,5.314 43.085,0 49.641,0 v 0 c 3.149,0 6.167,1.251 8.393,3.477 l 101.441,101.441 z"
         style="fill:#e67332"
         inkscape:connector-curvature="0" /><path
         id="path4399"
         d="M 474.229,235.016 V 11.87 C 474.229,5.314 468.914,0 462.359,0 v 0 c -3.149,0 -6.167,1.251 -8.393,3.477 L 352.525,104.918 Z"
         style="fill:#e67332"
         inkscape:connector-curvature="0" /></g><path
       id="path4403"
       d="m 500.83407,221.19115 c 0,138.99927 -112.68069,251.67996 -251.67995,251.67996 -138.99926,0 -251.6799509,-112.68176 -251.6799509,-251.67996 0,-138.998188 92.8239559,-233.703724 251.6799509,-233.703724 158.85599,0 251.67995,94.703395 251.67995,233.703724 z"
       style="fill:#ff914b;stroke-width:1.07090557"
       inkscape:connector-curvature="0" /><g
       mask="url(#mask4664)"
       transform="matrix(1.0511333,0,0,0.71962551,-12.378332,108.83055)"
       id="g4600"><path
         style="fill:#8e6649;stroke-width:0.77571321"
         d="m 69.298146,385.63364 c 1.861712,74.46847 71.986184,136.52553 179.965464,136.52553 107.97928,0 178.10376,-62.05706 179.96547,-136.52553 z"
         id="path4162"
         inkscape:connector-curvature="0" /><path
         style="fill:#774313;stroke-width:0.77571321"
         d="m 248.02247,522.15917 c 107.97928,0 178.72433,-62.05706 180.58604,-136.52553 H 67.436435"
         id="path4164"
         inkscape:connector-curvature="0" /></g><path
       id="path4405"
       d="m 306.03527,294.38113 c -23.55671,-5.05361 -45.21578,5.2967 -56.88115,22.86169 -11.66538,-17.56499 -33.32444,-27.9153 -56.88115,-22.86169 -20.22298,4.33824 -36.52324,20.72845 -40.76724,40.9707 -7.31535,34.88582 19.10603,65.61011 52.70569,65.61011 15.01517,0 28.58676,-6.14272 38.36091,-16.04645 3.69677,-3.74603 9.46574,-3.74603 13.1625,0 9.77416,9.90266 23.34682,16.04645 38.36198,16.04645 33.5986,0 60.02105,-30.72429 52.70569,-65.60904 -4.24614,-20.24225 -20.54532,-36.63353 -40.76723,-40.97177 z"
       style="fill:#ffffff;stroke-width:1.07090557"
       inkscape:connector-curvature="0" /><g
       transform="matrix(1.0709056,0,0,1.0709056,-24.997714,-75.432562)"
       id="g4419"><path
         id="path4407"
         d="m 222.257,355.646 23.497,32.896 c 5.021,7.03 15.469,7.03 20.49,0 l 23.497,-32.896 c 5.952,-8.333 -0.004,-19.908 -10.245,-19.908 h -46.995 c -10.239,0 -16.196,11.574 -10.244,19.908 z"
         style="fill:#e67332"
         inkscape:connector-curvature="0" /><path
         id="path4409"
         d="m 306.361,62.483 v 71.812 c 0,9.271 7.516,16.787 16.787,16.787 9.271,0 16.787,-7.516 16.787,-16.787 V 69.762 c -10.689,-3.037 -21.874,-5.487 -33.574,-7.279 z"
         style="fill:#e67332"
         inkscape:connector-curvature="0" /><path
         id="path4411"
         d="m 256,58.754 c -5.698,0 -11.272,0.175 -16.787,0.433 v 117.075 c 0,9.271 7.516,16.787 16.787,16.787 9.271,0 16.787,-7.516 16.787,-16.787 V 59.187 C 267.272,58.929 261.697,58.754 256,58.754 Z"
         style="fill:#e67332"
         inkscape:connector-curvature="0" /><path
         id="path4413"
         d="m 172.066,69.762 v 64.533 c 0,9.271 7.516,16.787 16.787,16.787 9.271,0 16.787,-7.516 16.787,-16.787 V 62.483 c -11.702,1.792 -22.887,4.242 -33.574,7.279 z"
         style="fill:#e67332"
         inkscape:connector-curvature="0" /><circle
         id="circle4415"
         r="33.574001"
         cy="352.52499"
         cx="104.918"
         style="fill:#e67332" /><circle
         id="circle4417"
         r="33.574001"
         cy="352.52499"
         cx="407.082"
         style="fill:#e67332" /></g><g
       id="g4425"
       transform="matrix(1.0709056,0,0,1.0709056,-24.997714,-89.432561)"><circle
         id="circle4421"
         r="33.574001"
         cy="268.59"
         cx="348.328"
         style="fill:#464655" /><circle
         id="circle4423"
         r="33.574001"
         cy="268.59"
         cx="163.672"
         style="fill:#464655" /></g><g
       transform="matrix(1.0709056,0,0,1.0709056,-24.997714,-75.432562)"
       id="g4427" /><g
       transform="matrix(1.0709056,0,0,1.0709056,-24.997714,-75.432562)"
       id="g4429" /><g
       transform="matrix(1.0709056,0,0,1.0709056,-24.997714,-75.432562)"
       id="g4431" /><g
       transform="matrix(1.0709056,0,0,1.0709056,-24.997714,-75.432562)"
       id="g4433" /><g
       transform="matrix(1.0709056,0,0,1.0709056,-24.997714,-75.432562)"
       id="g4435" /><g
       transform="matrix(1.0709056,0,0,1.0709056,-24.997714,-75.432562)"
       id="g4437" /><g
       transform="matrix(1.0709056,0,0,1.0709056,-24.997714,-75.432562)"
       id="g4439" /><g
       transform="matrix(1.0709056,0,0,1.0709056,-24.997714,-75.432562)"
       id="g4441" /><g
       transform="matrix(1.0709056,0,0,1.0709056,-24.997714,-75.432562)"
       id="g4443" /><g
       transform="matrix(1.0709056,0,0,1.0709056,-24.997714,-75.432562)"
       id="g4445" /><g
       transform="matrix(1.0709056,0,0,1.0709056,-24.997714,-75.432562)"
       id="g4447" /><g
       transform="matrix(1.0709056,0,0,1.0709056,-24.997714,-75.432562)"
       id="g4449" /><g
       transform="matrix(1.0709056,0,0,1.0709056,-24.997714,-75.432562)"
       id="g4451" /><g
       transform="matrix(1.0709056,0,0,1.0709056,-24.997714,-75.432562)"
       id="g4453" /><g
       transform="matrix(1.0709056,0,0,1.0709056,-24.997714,-75.432562)"
       id="g4455" /><polygon
       transform="matrix(0.77571322,0,0,0.77571322,55.417416,102.24725)"
       id="polygon4188"
       points="271.2,453.6 249.6,442.4 228,453.6 232,429.6 214.4,412.8 239.2,408.8 249.6,387.2 260.8,408.8 284.8,412.8 267.2,429.6 "
       style="fill:#f9a908" /><g
       id="g5009"
       transform="translate(6)"><path
         inkscape:connector-curvature="0"
         id="path4106"
         d="m 350.46793,131.64575 c -4.58335,6.4434 8.41127,12.04805 22.10355,21.7876 13.11925,10.54499 22.10338,21.78737 26.68662,15.34402 4.58338,-6.44342 -1.30381,-20.3345 -15.80118,-30.64713 -12.88661,-9.16666 -27.60019,-12.35465 -32.98899,-6.48449 z"
         style="fill:#19bca4;stroke-width:1.23549974" /><path
         style="fill:#19bca4;stroke-width:1.23549974"
         d="m 136.61517,129.64575 c 4.58336,6.4434 -8.41126,12.04805 -22.10355,21.7876 -13.11927,10.54499 -22.10339,21.78737 -26.686824,15.34402 -4.583301,-6.44342 1.304014,-20.3345 15.801374,-30.64713 12.88662,-9.16666 27.6002,-12.35465 32.989,-6.48449 z"
         id="path4576"
         inkscape:connector-curvature="0" /></g><circle
       style="fill:#f9a908"
       cx="42.400002"
       cy="113.60001"
       r="8.8000002"
       id="circle4148" /><circle
       style="fill:#f9a908"
       cx="66.400002"
       cy="86.400002"
       r="4"
       id="circle4150" /><circle
       style="fill:#f9a908"
       cx="457.60001"
       cy="132"
       r="1.6"
       id="circle4152" /><circle
       style="fill:#f9a908"
       cx="451.20001"
       cy="109.60001"
       r="6.4000001"
       id="circle4154" /><circle
       style="fill:#f9a908"
       cx="471.20001"
       cy="113.60001"
       r="4"
       id="circle4156" /><circle
       style="fill:#f9a908"
       cx="51.200001"
       cy="136"
       r="4"
       id="circle4158" /><path
       inkscape:connector-curvature="0"
       id="path4172"
       d="M 107.2,104 C 71.2,160 60,217.6 31.2,198.4 1.6,179.2 7.2,118.4 44,62.4 80,6.4 124.8,-36 162.4,-4.8 224,47.2 143.2,48 107.2,104 Z"
       style="fill:#d3a95f" /><path
       style="fill:#b58c39"
       d="M 162.4,-4 C 224,47.2 143.2,48 107.2,104 71.2,160 60,217.6 31.2,198.4"
       id="path4174"
       inkscape:connector-curvature="0" /><path
       style="fill:#b58c39"
       d="m 388.8,104 c 36,56 47.2,113.6 76,94.4 29.6,-19.2 24,-80 -12.8,-136 C 416,6.4 371.2,-36 333.6,-4.8 272,47.2 352.8,48 388.8,104 Z"
       id="path4176"
       inkscape:connector-curvature="0" /><path
       inkscape:connector-curvature="0"
       id="path4180"
       d="m 333.6,-4 c -61.6,51.2 19.2,52 55.2,108 36,56 47.2,113.6 76,94.4"
       style="fill:#d3a95f" /><path
       inkscape:connector-curvature="0"
       id="path4182"
       d="m 400.8,20 c 0,33.6 -27.2,60 -60,60 H 159.2 c -33.6,0 -60,-26.4 -60,-60 v 0 c 0,-33.6 27.2,-60 60,-60 h 181.6 c 32.8,0 60,26.4 60,60 z"
       style="fill:#8e6649" /><path
       inkscape:connector-curvature="0"
       id="path4184"
       d="m 99.2,20 v 0 c 0,-33.6 27.2,-60 60,-60 H 344"
       style="fill:#a58168" /><path
       inkscape:connector-curvature="0"
       id="path4186"
       d="m 400.8,20.8 v 0 c 0,33.6 -27.2,59.2 -60,59.2 H 159.2 c -33.6,0 -60,-26.4 -60,-60 v 0"
       style="fill:#774313" /><circle
       id="circle4190"
       r="62.400002"
       cy="54.400002"
       cx="175.2"
       style="fill:#a37a3e" /><circle
       id="circle4192"
       r="47.200001"
       cy="54.400002"
       cx="175.2"
       style="fill:#9ec6c1" /><path
       inkscape:connector-curvature="0"
       id="path4194"
       d="m 222.4,57.6 c 0,23.2 -19.2,42.4 -42.4,42.4 -23.2,0 -42.4,-19.2 -42.4,-42.4 0,-23.2 19.2,-42.4 42.4,-42.4 23.2,0 42.4,19.2 42.4,42.4 z"
       style="fill:#c1dbd8" /><path
       inkscape:connector-curvature="0"
       id="path4196"
       d="m 209.6,28 c 16.8,16.8 16.8,43.2 0,59.2 -16.8,16.8 -43.2,16.8 -59.2,0"
       style="fill:#d8eae7" /><circle
       id="circle4198"
       r="62.400002"
       cy="54.400002"
       cx="324"
       style="fill:#a37a3e" /><circle
       id="circle4200"
       r="47.200001"
       cy="54.400002"
       cx="324"
       style="fill:#9ec6c1" /><path
       inkscape:connector-curvature="0"
       id="path4202"
       d="m 371.2,57.6 c 0,23.2 -19.2,42.4 -42.4,42.4 -23.2,0 -42.4,-19.2 -42.4,-42.4 0,-23.2 19.2,-42.4 42.4,-42.4 23.2,0 42.4,19.2 42.4,42.4 z"
       style="fill:#c1dbd8" /><path
       inkscape:connector-curvature="0"
       id="path4204"
       d="m 358.4,28 c 16.8,16.8 16.8,43.2 0,59.2 -16.8,16.8 -43.2,16.8 -59.2,0"
       style="fill:#d8eae7" /><path
       inkscape:connector-curvature="0"
       id="path4210"
       d="M 65.6,40.8 C 48.8,64.8 37.6,85.6 40,88 43.2,90.4 59.2,72.8 76.8,48.8 93.6,24.8 92,22.4 88.8,20 86.4,18.4 83.2,16.8 65.6,40.8 Z"
       style="fill:#e5bd7f" /></g><g
     id="g4212"
     transform="translate(2.5258309,95.410414)" /><g
     id="g4214"
     transform="translate(2.5258309,95.410414)" /><g
     id="g4216"
     transform="translate(2.5258309,95.410414)" /><g
     id="g4218"
     transform="translate(2.5258309,95.410414)" /><g
     id="g4220"
     transform="translate(2.5258309,95.410414)" /><g
     id="g4222"
     transform="translate(2.5258309,95.410414)" /><g
     id="g4224"
     transform="translate(2.5258309,95.410414)" /><g
     id="g4226"
     transform="translate(2.5258309,95.410414)" /><g
     id="g4228"
     transform="translate(2.5258309,95.410414)" /><g
     id="g4230"
     transform="translate(2.5258309,95.410414)" /><g
     id="g4232"
     transform="translate(2.5258309,95.410414)" /><g
     id="g4234"
     transform="translate(2.5258309,95.410414)" /><g
     id="g4236"
     transform="translate(2.5258309,95.410414)" /><g
     id="g4238"
     transform="translate(2.5258309,95.410414)" /><g
     id="g4240"
     transform="translate(2.5258309,95.410414)" /></svg>