<?xml version="1.0" encoding="UTF-8" standalone="no"?>
<!-- Generator: Adobe Illustrator 19.0.0, SVG Export Plug-In . SVG Version: 6.00 Build 0)  -->

<svg
   xmlns:dc="http://purl.org/dc/elements/1.1/"
   xmlns:cc="http://creativecommons.org/ns#"
   xmlns:rdf="http://www.w3.org/1999/02/22-rdf-syntax-ns#"
   xmlns:svg="http://www.w3.org/2000/svg"
   xmlns="http://www.w3.org/2000/svg"
   xmlns:xlink="http://www.w3.org/1999/xlink"
   xmlns:sodipodi="http://sodipodi.sourceforge.net/DTD/sodipodi-0.dtd"
   xmlns:inkscape="http://www.inkscape.org/namespaces/inkscape"
   version="1.1"
   id="Layer_1"
   x="0px"
   y="0px"
   viewBox="0 0 580 580"
   xml:space="preserve"
   sodipodi:docname="clowdr.svg"
   width="580"
   height="580"
   inkscape:version="0.91 r13725"
   inkscape:export-filename="/Users/gkiar/code/gkiar/clowdr.github.io/images/source/clowdr.png"
   inkscape:export-xdpi="96"
   inkscape:export-ydpi="96"><metadata
     id="metadata4247"><rdf:RDF><cc:Work
         rdf:about=""><dc:format>image/svg+xml</dc:format><dc:type
           rdf:resource="http://purl.org/dc/dcmitype/StillImage" /><dc:title /></cc:Work></rdf:RDF></metadata><defs
     id="defs4245"><linearGradient
       inkscape:collect="always"
       id="linearGradient5036"><stop
         style="stop-color:#cccccc;stop-opacity:1;"
         offset="0"
         id="stop5032" /><stop
         style="stop-color:#cccccc;stop-opacity:0;"
         offset="1"
         id="stop5034" /></linearGradient><mask
       maskUnits="userSpaceOnUse"
       id="mask4664"><g
         transform="matrix(1.0188105,0,0,1.4881429,-12.005501,-256.05417)"
         id="g4726"><g
           id="g4670"><path
             inkscape:connector-curvature="0"
             style="fill:#e67332"
             d="M 37.77,235.016 V 11.87 C 37.77,5.314 43.085,0 49.641,0 v 0 c 3.149,0 6.167,1.251 8.393,3.477 l 101.441,101.441 z"
             id="path4666" /><path
             inkscape:connector-curvature="0"
             style="fill:#e67332"
             d="M 474.229,235.016 V 11.87 C 474.229,5.314 468.914,0 462.359,0 v 0 c -3.149,0 -6.167,1.251 -8.393,3.477 L 352.525,104.918 Z"
             id="path4668" /></g><path
           inkscape:connector-curvature="0"
           style="fill:#ff914b"
           d="M 491.016,276.984 C 491.016,406.78 385.796,512 256,512 126.204,512 20.984,406.779 20.984,276.984 20.984,147.189 107.662,58.754 256,58.754 c 148.338,0 235.016,88.433 235.016,218.23 z"
           id="path4672" /><path
           inkscape:connector-curvature="0"
           style="fill:#ffffff"
           d="m 309.115,345.328 c -21.997,-4.719 -42.222,4.946 -53.115,21.348 -10.893,-16.402 -31.118,-26.067 -53.115,-21.348 -18.884,4.051 -34.105,19.356 -38.068,38.258 -6.831,32.576 17.841,61.266 49.216,61.266 14.021,0 26.694,-5.736 35.821,-14.984 3.452,-3.498 8.839,-3.498 12.291,0 9.127,9.247 21.801,14.984 35.822,14.984 31.374,0 56.047,-28.69 49.216,-61.265 -3.965,-18.902 -19.185,-34.208 -38.068,-38.259 z"
           id="path4674" /><g
           id="g4688"><path
             inkscape:connector-curvature="0"
             style="fill:#e67332"
             d="m 222.257,355.646 23.497,32.896 c 5.021,7.03 15.469,7.03 20.49,0 l 23.497,-32.896 c 5.952,-8.333 -0.004,-19.908 -10.245,-19.908 h -46.995 c -10.239,0 -16.196,11.574 -10.244,19.908 z"
             id="path4676" /><path
             inkscape:connector-curvature="0"
             style="fill:#e67332"
             d="m 306.361,62.483 v 71.812 c 0,9.271 7.516,16.787 16.787,16.787 9.271,0 16.787,-7.516 16.787,-16.787 V 69.762 c -10.689,-3.037 -21.874,-5.487 -33.574,-7.279 z"
             id="path4678" /><path
             inkscape:connector-curvature="0"
             style="fill:#e67332"
             d="m 256,58.754 c -5.698,0 -11.272,0.175 -16.787,0.433 v 117.075 c 0,9.271 7.516,16.787 16.787,16.787 9.271,0 16.787,-7.516 16.787,-16.787 V 59.187 C 267.272,58.929 261.697,58.754 256,58.754 Z"
             id="path4680" /><path
             inkscape:connector-curvature="0"
             style="fill:#e67332"
             d="m 172.066,69.762 v 64.533 c 0,9.271 7.516,16.787 16.787,16.787 9.271,0 16.787,-7.516 16.787,-16.787 V 62.483 c -11.702,1.792 -22.887,4.242 -33.574,7.279 z"
             id="path4682" /><circle
             style="fill:#e67332"
             cx="104.918"
             cy="352.52499"
             r="33.574001"
             id="circle4684" /><circle
             style="fill:#e67332"
             cx="407.082"
             cy="352.52499"
             r="33.574001"
             id="circle4686" /></g><g
           transform="translate(0,-13.073047)"
           id="g4694"><circle
             style="fill:#464655"
             cx="348.328"
             cy="268.59"
             r="33.574001"
             id="circle4690" /><circle
             style="fill:#464655"
             cx="163.672"
             cy="268.59"
             r="33.574001"
             id="circle4692" /></g><g
           id="g4696" /><g
           id="g4698" /><g
           id="g4700" /><g
           id="g4702" /><g
           id="g4704" /><g
           id="g4706" /><g
           id="g4708" /><g
           id="g4710" /><g
           id="g4712" /><g
           id="g4714" /><g
           id="g4716" /><g
           id="g4718" /><g
           id="g4720" /><g
           id="g4722" /><g
           id="g4724" /></g></mask><linearGradient
       inkscape:collect="always"
       xlink:href="#linearGradient5036"
       id="linearGradient5038"
       x1="101.67667"
       y1="516.60162"
       x2="555.03503"
       y2="514.20923"
       gradientUnits="userSpaceOnUse" /><filter
       inkscape:label="Edge Detect"
       inkscape:menu="Image Effects"
       inkscape:menu-tooltip="Sharpen edges and boundaries within the object, force=0.15"
       style="color-interpolation-filters:sRGB;"
       id="filter5197"><feConvolveMatrix
         order="3 3"
         kernelMatrix="0 -0.15 0 -0.15 1.6 -0.15 0 -0.15 0"
         divisor="1"
         in="SourceGraphic"
         targetX="1"
         targetY="1"
         id="feConvolveMatrix5199"
         result="fbSourceGraphic" /><feColorMatrix
         result="fbSourceGraphicAlpha"
         in="fbSourceGraphic"
         values="0 0 0 -1 0 0 0 0 -1 0 0 0 0 -1 0 0 0 0 1 0"
         id="feColorMatrix5213" /><feColorMatrix
         id="feColorMatrix5215"
         values="0.3 0 0 0 0 0 0.3 0 0 0 0 0 0.3 0 0 0 0 0 1 0"
         in="fbSourceGraphic"
         result="fbSourceGraphic" /><feColorMatrix
         result="fbSourceGraphicAlpha"
         in="fbSourceGraphic"
         values="0 0 0 -1 0 0 0 0 -1 0 0 0 0 -1 0 0 0 0 1 0"
         id="feColorMatrix5237" /><feConvolveMatrix
         id="feConvolveMatrix5239"
         in="fbSourceGraphic"
         kernelMatrix="0 1 0 1 -4 1 0 1 0"
         order="3 3"
         bias="0"
         divisor="0.0187835"
         targetX="1"
         targetY="1"
         preserveAlpha="true"
         result="convolve" /></filter><clipPath
       clipPathUnits="userSpaceOnUse"
       id="clipPath5309"><path
         style="fill:#0055d4;stroke-width:0.77571321"
         d="m 289.10003,501.67332 c 79.51521,0 131.61138,-31.28598 132.98233,-68.82915 l -265.96465,0"
         id="path5311"
         inkscape:connector-curvature="0" /></clipPath></defs><sodipodi:namedview
     pagecolor="#ffffff"
     bordercolor="#666666"
     borderopacity="1"
     objecttolerance="10"
     gridtolerance="10"
     guidetolerance="10"
     inkscape:pageopacity="0"
     inkscape:pageshadow="2"
     inkscape:window-width="1137"
     inkscape:window-height="737"
     id="namedview4243"
     showgrid="false"
     fit-margin-top="0"
     fit-margin-left="0"
     fit-margin-right="0"
     fit-margin-bottom="0"
     inkscape:zoom="0.99108514"
     inkscape:cx="625.79717"
     inkscape:cy="390.47471"
     inkscape:window-x="140"
     inkscape:window-y="84"
     inkscape:window-maximized="0"
     inkscape:current-layer="Layer_1" /><rect
     id="rect5030"
     width="580"
     height="580"
     x="0"
     y="2.6645353e-14"
     style="fill:url(#linearGradient5038);stroke-width:0.98953128;fill-opacity:1" /><g
     id="g4401"
     transform="matrix(0.75024506,0,0,0.75024506,97.617215,109.33821)"><path
       inkscape:connector-curvature="0"
       style="fill:#e67332"
       d="m 37.77,235.016 0,-223.146 C 37.77,5.314 43.085,0 49.641,0 l 0,0 c 3.149,0 6.167,1.251 8.393,3.477 l 101.441,101.441 z"
       id="path4397" /><path
       inkscape:connector-curvature="0"
       style="fill:#e67332"
       d="m 474.229,235.016 0,-223.146 C 474.229,5.314 468.914,0 462.359,0 l 0,0 c -3.149,0 -6.167,1.251 -8.393,3.477 L 352.525,104.918 Z"
       id="path4399" /></g><path
     inkscape:connector-curvature="0"
     style="fill:#ff914b;stroke-width:1.07090557"
     d="m 465.99954,317.14408 c 0,97.37882 -78.94078,176.31961 -176.31959,176.31961 -97.3788,0 -176.31959,-78.94154 -176.31959,-176.31961 0,-97.37805 65.02974,-163.72597 176.31959,-163.72597 111.28985,0 176.31959,66.34642 176.31959,163.72597 z"
     id="path4403" /><g
     id="g5506"
     style="fill:#2a7fff"
     transform="translate(0,-89.526998)"><g
       style="opacity:1;fill:#2a7fff;fill-opacity:1"
       id="g5072"
       transform="matrix(0.73639317,0,0,0.50414853,106.45798,327.95422)"
       mask="url(#mask4664)"><path
         inkscape:connector-curvature="0"
         id="path5074"
         d="m 69.298146,385.63364 c 1.861712,74.46847 71.986184,136.52553 179.965464,136.52553 107.97928,0 178.10376,-62.05706 179.96547,-136.52553 z"
         style="fill:#2a7fff;fill-opacity:1;stroke-width:0.77571321" /><path
         inkscape:connector-curvature="0"
         id="path5076"
         d="m 248.02247,522.15917 c 107.97928,0 178.72433,-62.05706 180.58604,-136.52553 l -361.172075,0"
         style="fill:#2a7fff;fill-opacity:1;stroke-width:0.77571321" /></g><g
       mask="url(#mask4664)"
       transform="matrix(0.73639317,0,0,0.50414853,106.45798,327.95422)"
       id="g5440"
       style="opacity:1;fill:#2a7fff;fill-opacity:1"><path
         style="fill:#2a7fff;fill-opacity:1;stroke-width:0.77571321"
         d="m 69.298146,385.63364 c 1.861712,74.46847 71.986184,136.52553 179.965464,136.52553 107.97928,0 178.10376,-62.05706 179.96547,-136.52553 z"
         id="path5442"
         inkscape:connector-curvature="0" /><path
         style="fill:#2a7fff;fill-opacity:1;stroke-width:0.77571321"
         d="m 248.02247,522.15917 c 107.97928,0 178.72433,-62.05706 180.58604,-136.52553 l -361.172075,0"
         id="path5444"
         inkscape:connector-curvature="0" /></g><g
       style="opacity:1;fill:#2a7fff;fill-opacity:1"
       id="g5446"
       transform="matrix(0.73639317,0,0,0.50414853,106.45798,327.95422)"
       mask="url(#mask4664)"><path
         inkscape:connector-curvature="0"
         id="path5448"
         d="m 69.298146,385.63364 c 1.861712,74.46847 71.986184,136.52553 179.965464,136.52553 107.97928,0 178.10376,-62.05706 179.96547,-136.52553 z"
         style="fill:#2a7fff;fill-opacity:1;stroke-width:0.77571321" /><path
         inkscape:connector-curvature="0"
         id="path5450"
         d="m 248.02247,522.15917 c 107.97928,0 178.72433,-62.05706 180.58604,-136.52553 l -361.172075,0"
         style="fill:#2a7fff;fill-opacity:1;stroke-width:0.77571321" /></g><g
       mask="url(#mask4664)"
       transform="matrix(0.73639317,0,0,0.50414853,106.45798,327.95422)"
       id="g5452"
       style="opacity:1;fill:#2a7fff;fill-opacity:1"><path
         style="fill:#2a7fff;fill-opacity:1;stroke-width:0.77571321"
         d="m 69.298146,385.63364 c 1.861712,74.46847 71.986184,136.52553 179.965464,136.52553 107.97928,0 178.10376,-62.05706 179.96547,-136.52553 z"
         id="path5454"
         inkscape:connector-curvature="0" /><path
         style="fill:#2a7fff;fill-opacity:1;stroke-width:0.77571321"
         d="m 248.02247,522.15917 c 107.97928,0 178.72433,-62.05706 180.58604,-136.52553 l -361.172075,0"
         id="path5456"
         inkscape:connector-curvature="0" /></g><g
       style="opacity:1;fill:#2a7fff;fill-opacity:1"
       id="g5458"
       transform="matrix(0.73639317,0,0,0.50414853,106.45798,327.95422)"
       mask="url(#mask4664)"><path
         inkscape:connector-curvature="0"
         id="path5460"
         d="m 69.298146,385.63364 c 1.861712,74.46847 71.986184,136.52553 179.965464,136.52553 107.97928,0 178.10376,-62.05706 179.96547,-136.52553 z"
         style="fill:#2a7fff;fill-opacity:1;stroke-width:0.77571321" /><path
         inkscape:connector-curvature="0"
         id="path5462"
         d="m 248.02247,522.15917 c 107.97928,0 178.72433,-62.05706 180.58604,-136.52553 l -361.172075,0"
         style="fill:#2a7fff;fill-opacity:1;stroke-width:0.77571321" /></g><g
       mask="url(#mask4664)"
       transform="matrix(0.73639317,0,0,0.50414853,106.45798,327.95422)"
       id="g5464"
       style="opacity:1;fill:#2a7fff;fill-opacity:1"><path
         style="fill:#2a7fff;fill-opacity:1;stroke-width:0.77571321"
         d="m 69.298146,385.63364 c 1.861712,74.46847 71.986184,136.52553 179.965464,136.52553 107.97928,0 178.10376,-62.05706 179.96547,-136.52553 z"
         id="path5466"
         inkscape:connector-curvature="0" /><path
         style="fill:#2a7fff;fill-opacity:1;stroke-width:0.77571321"
         d="m 248.02247,522.15917 c 107.97928,0 178.72433,-62.05706 180.58604,-136.52553 l -361.172075,0"
         id="path5468"
         inkscape:connector-curvature="0" /></g><g
       style="opacity:1;fill:#2a7fff;fill-opacity:1"
       id="g5470"
       transform="matrix(0.73639317,0,0,0.50414853,106.45798,327.95422)"
       mask="url(#mask4664)"><path
         inkscape:connector-curvature="0"
         id="path5472"
         d="m 69.298146,385.63364 c 1.861712,74.46847 71.986184,136.52553 179.965464,136.52553 107.97928,0 178.10376,-62.05706 179.96547,-136.52553 z"
         style="fill:#2a7fff;fill-opacity:1;stroke-width:0.77571321" /><path
         inkscape:connector-curvature="0"
         id="path5474"
         d="m 248.02247,522.15917 c 107.97928,0 178.72433,-62.05706 180.58604,-136.52553 l -361.172075,0"
         style="fill:#2a7fff;fill-opacity:1;stroke-width:0.77571321" /></g><g
       mask="url(#mask4664)"
       transform="matrix(0.73639317,0,0,0.50414853,106.45798,327.95422)"
       id="g5476"
       style="opacity:1;fill:#2a7fff;fill-opacity:1"><path
         style="fill:#2a7fff;fill-opacity:1;stroke-width:0.77571321"
         d="m 69.298146,385.63364 c 1.861712,74.46847 71.986184,136.52553 179.965464,136.52553 107.97928,0 178.10376,-62.05706 179.96547,-136.52553 z"
         id="path5478"
         inkscape:connector-curvature="0" /><path
         style="fill:#2a7fff;fill-opacity:1;stroke-width:0.77571321"
         d="m 248.02247,522.15917 c 107.97928,0 178.72433,-62.05706 180.58604,-136.52553 l -361.172075,0"
         id="path5480"
         inkscape:connector-curvature="0" /></g><g
       style="opacity:1;fill:#2a7fff;fill-opacity:1"
       id="g5482"
       transform="matrix(0.73639317,0,0,0.50414853,106.45798,327.95422)"
       mask="url(#mask4664)"><path
         inkscape:connector-curvature="0"
         id="path5484"
         d="m 69.298146,385.63364 c 1.861712,74.46847 71.986184,136.52553 179.965464,136.52553 107.97928,0 178.10376,-62.05706 179.96547,-136.52553 z"
         style="fill:#2a7fff;fill-opacity:1;stroke-width:0.77571321" /><path
         inkscape:connector-curvature="0"
         id="path5486"
         d="m 248.02247,522.15917 c 107.97928,0 178.72433,-62.05706 180.58604,-136.52553 l -361.172075,0"
         style="fill:#2a7fff;fill-opacity:1;stroke-width:0.77571321" /></g></g><path
     style="fill:#3d63b1;stroke-width:0.77571321;fill-opacity:1"
     clip-path="url(#clipPath5309)"
     d="M 157.48828 432.84375 C 157.50086 433.1883 157.5278 433.53153 157.54883 433.875 C 189.85443 470.41458 237.07176 493.46289 289.67969 493.46289 C 342.67458 493.46289 390.20381 470.07812 422.52539 433.07031 C 422.52856 432.99466 422.5363 432.91945 422.53906 432.84375 L 157.48828 432.84375 z "
     id="path4162" /><path
     inkscape:connector-curvature="0"
     style="fill:#ffffff;stroke-width:1.07090557"
     d="m 329.52922,368.41884 c -16.50314,-3.54041 -31.67685,3.71071 -39.84927,16.01623 -8.17242,-12.30552 -23.34612,-19.55664 -39.84926,-16.01623 -14.16763,3.03924 -25.58712,14.52174 -28.56034,28.70287 -5.12492,24.43998 13.38513,45.96452 36.92406,45.96452 10.51919,0 20.02705,-4.30341 26.87453,-11.24167 2.58985,-2.62436 6.63142,-2.62436 9.22126,0 6.84749,6.93751 16.3561,11.24167 26.87528,11.24167 23.5382,0 42.04899,-21.52454 36.92406,-45.96377 -2.97472,-14.18113 -14.39345,-25.66438 -28.56032,-28.70362 z"
     id="path4405" /><g
     id="g4419"
     transform="matrix(0.75024506,0,0,0.75024506,97.617215,109.33821)"><path
       inkscape:connector-curvature="0"
       style="fill:#e67332"
       d="m 222.257,355.646 23.497,32.896 c 5.021,7.03 15.469,7.03 20.49,0 l 23.497,-32.896 c 5.952,-8.333 -0.004,-19.908 -10.245,-19.908 l -46.995,0 c -10.239,0 -16.196,11.574 -10.244,19.908 z"
       id="path4407" /><path
       inkscape:connector-curvature="0"
       style="fill:#e67332"
       d="m 306.361,62.483 0,71.812 c 0,9.271 7.516,16.787 16.787,16.787 9.271,0 16.787,-7.516 16.787,-16.787 l 0,-64.533 c -10.689,-3.037 -21.874,-5.487 -33.574,-7.279 z"
       id="path4409" /><path
       inkscape:connector-curvature="0"
       style="fill:#e67332"
       d="m 256,58.754 c -5.698,0 -11.272,0.175 -16.787,0.433 l 0,117.075 c 0,9.271 7.516,16.787 16.787,16.787 9.271,0 16.787,-7.516 16.787,-16.787 l 0,-117.075 C 267.272,58.929 261.697,58.754 256,58.754 Z"
       id="path4411" /><path
       inkscape:connector-curvature="0"
       style="fill:#e67332"
       d="m 172.066,69.762 0,64.533 c 0,9.271 7.516,16.787 16.787,16.787 9.271,0 16.787,-7.516 16.787,-16.787 l 0,-71.812 c -11.702,1.792 -22.887,4.242 -33.574,7.279 z"
       id="path4413" /><circle
       style="fill:#e67332"
       cx="104.918"
       cy="352.52499"
       r="33.574001"
       id="circle4415" /><circle
       style="fill:#e67332"
       cx="407.082"
       cy="352.52499"
       r="33.574001"
       id="circle4417" /></g><g
     transform="matrix(0.75024506,0,0,0.75024506,97.617215,99.53022)"
     id="g4425"><circle
       style="fill:#464655"
       cx="348.328"
       cy="268.59"
       r="33.574001"
       id="circle4421" /><circle
       style="fill:#464655"
       cx="163.672"
       cy="268.59"
       r="33.574001"
       id="circle4423" /></g><g
     id="g4427"
     transform="matrix(0.75024506,0,0,0.75024506,97.617215,109.33821)" /><g
     id="g4429"
     transform="matrix(0.75024506,0,0,0.75024506,97.617215,109.33821)" /><g
     id="g4431"
     transform="matrix(0.75024506,0,0,0.75024506,97.617215,109.33821)" /><g
     id="g4433"
     transform="matrix(0.75024506,0,0,0.75024506,97.617215,109.33821)" /><g
     id="g4435"
     transform="matrix(0.75024506,0,0,0.75024506,97.617215,109.33821)" /><g
     id="g4437"
     transform="matrix(0.75024506,0,0,0.75024506,97.617215,109.33821)" /><g
     id="g4439"
     transform="matrix(0.75024506,0,0,0.75024506,97.617215,109.33821)" /><g
     id="g4441"
     transform="matrix(0.75024506,0,0,0.75024506,97.617215,109.33821)" /><g
     id="g4443"
     transform="matrix(0.75024506,0,0,0.75024506,97.617215,109.33821)" /><g
     id="g4445"
     transform="matrix(0.75024506,0,0,0.75024506,97.617215,109.33821)" /><g
     id="g4447"
     transform="matrix(0.75024506,0,0,0.75024506,97.617215,109.33821)" /><g
     id="g4449"
     transform="matrix(0.75024506,0,0,0.75024506,97.617215,109.33821)" /><g
     id="g4451"
     transform="matrix(0.75024506,0,0,0.75024506,97.617215,109.33821)" /><g
     id="g4453"
     transform="matrix(0.75024506,0,0,0.75024506,97.617215,109.33821)" /><g
     id="g4455"
     transform="matrix(0.75024506,0,0,0.75024506,97.617215,109.33821)" /><g
     transform="matrix(0.70057068,0,0,0.70057068,119.3333,162.18405)"
     id="g5009"><path
       style="fill:#19bca4;stroke-width:1.23549974"
       d="m 350.46793,131.64575 c -4.58335,6.4434 8.41127,12.04805 22.10355,21.7876 13.11925,10.54499 22.10338,21.78737 26.68662,15.34402 4.58338,-6.44342 -1.30381,-20.3345 -15.80118,-30.64713 -12.88661,-9.16666 -27.60019,-12.35465 -32.98899,-6.48449 z"
       id="path4106"
       inkscape:connector-curvature="0" /><path
       inkscape:connector-curvature="0"
       id="path4576"
       d="m 136.61517,129.64575 c 4.58336,6.4434 -8.41126,12.04805 -22.10355,21.7876 -13.11927,10.54499 -22.10339,21.78737 -26.686824,15.34402 -4.583301,-6.44342 1.304014,-20.3345 15.801374,-30.64713 12.88662,-9.16666 27.6002,-12.35465 32.989,-6.48449 z"
       style="fill:#19bca4;stroke-width:1.23549974" /></g><g
     id="g4212"
     transform="translate(2.5258309,95.410414)" /><g
     id="g4214"
     transform="translate(2.5258309,95.410414)" /><g
     id="g4216"
     transform="translate(2.5258309,95.410414)" /><g
     id="g4218"
     transform="translate(2.5258309,95.410414)" /><g
     id="g4220"
     transform="translate(2.5258309,95.410414)" /><g
     id="g4222"
     transform="translate(2.5258309,95.410414)" /><g
     id="g4224"
     transform="translate(2.5258309,95.410414)" /><g
     id="g4226"
     transform="translate(2.5258309,95.410414)" /><g
     id="g4228"
     transform="translate(2.5258309,95.410414)" /><g
     id="g4230"
     transform="translate(2.5258309,95.410414)" /><g
     id="g4232"
     transform="translate(2.5258309,95.410414)" /><g
     id="g4234"
     transform="translate(2.5258309,95.410414)" /><g
     id="g4236"
     transform="translate(2.5258309,95.410414)" /><g
     id="g4238"
     transform="translate(2.5258309,95.410414)" /><g
     id="g4240"
     transform="translate(2.5258309,95.410414)" /><g
     id="g5274"
     transform="translate(127.13338,252.24876)"><ellipse
       id="ellipse5092"
       ry="67.718697"
       rx="111.37184"
       cy="-107.44482"
       cx="164.29002"
       style="fill:#3d63b1;fill-opacity:1" /><path
       id="path5094"
       d="m 258.31235,-67.149468 0,-8.394941 c 0,-14.527325 -42.09532,-26.304091 -94.02233,-26.304091 -51.927,0 -94.02232,11.776304 -94.02232,26.304091 l 0,7.835309 c 0,1.702926 0.120152,3.381822 0.343358,5.036687 l 187.434642,0 c 0.17561,-1.472326 0.26665,-2.964986 0.26665,-4.477055 z"
       style="fill:#4d4d4d"
       inkscape:connector-curvature="0" /><path
       id="path5096"
       d="m 164.29002,-10.624332 c 41.19557,0 76.19821,-14.956638 88.90893,-37.497188 l -177.532719,0 c 12.941315,22.411618 47.730919,37.497188 88.623789,37.497188 z"
       style="fill:#4d4d4d"
       inkscape:connector-curvature="0" /><path
       id="path5098"
       d="m 70.610596,-62.672413 c 0.688565,5.111089 2.417832,9.983261 5.055635,14.550893 l 177.532259,0 c 2.57172,-4.5607 4.23397,-9.430561 4.84629,-14.550893 l -187.434184,0 z"
       style="fill:#ffcc00;fill-opacity:1"
       inkscape:connector-curvature="0" /><g
       id="g5712"
       style="fill:#ffcc00;stroke:#000000;stroke-opacity:1;stroke-width:0;stroke-miterlimit:4;stroke-dasharray:none;fill-opacity:1"><circle
         style="fill:#ffcc00;fill-opacity:1;stroke:#000000;stroke-width:0;stroke-miterlimit:4;stroke-dasharray:none;stroke-opacity:1"
         cx="162.0515"
         cy="-131.51038"
         r="12.871997"
         id="circle5100" /><path
         style="fill:#ffcc00;fill-opacity:1;stroke:#000000;stroke-opacity:1;stroke-width:0;stroke-miterlimit:4;stroke-dasharray:none"
         d="m 148.4505,-116.72027 c -0.98149,-0.37058 -2.88734,-1.51494 -4.23525,-2.54303 l -2.45071,-1.86926 -4.89867,1.18235 c -5.03848,1.21611 -13.72911,1.50261 -16.20204,0.53414 -1.03649,-0.40593 1.34794,-1.50858 9.26097,-4.28262 14.83825,-5.20181 13.75752,-5.07245 14.74839,-1.76523 0.45941,1.53339 2.01868,4.17049 3.46504,5.86024 1.44635,1.68973 2.50982,3.18136 2.36326,3.31473 -0.14656,0.13336 -1.06951,-0.0607 -2.05099,-0.43132 z m 25.26392,0.50769 c 0,-0.16432 0.98796,-1.3754 2.19548,-2.69128 1.20751,-1.3159 2.74254,-3.92486 3.41118,-5.7977 1.44116,-4.03671 0.30694,-4.11865 15.29521,1.10501 7.74339,2.69871 10.06722,3.77448 9.03053,4.18048 -2.47291,0.96847 -11.16355,0.68197 -16.20203,-0.53414 l -4.89867,-1.18235 -2.43234,1.85524 c -2.29452,1.75011 -6.39936,3.71598 -6.39936,3.06474 z m -67.54844,-8.30602 c -1.37406,-0.56308 -1.35636,-0.6269 0.36122,-1.30186 10.49364,-4.12371 25.10192,-8.89849 35.60333,-11.63708 l 2.73217,-0.7125 -0.46833,2.65728 c -0.25758,1.4615 -0.83687,3.04108 -1.28728,3.51016 -1.29059,1.34407 -11.67495,5.22757 -18.09315,6.76638 -5.97913,1.43356 -16.15541,1.821 -18.84796,0.71762 z m 92.80017,-0.75268 c -6.16271,-1.5166 -16.52657,-5.4441 -17.76258,-6.73132 -0.45042,-0.46908 -1.0297,-2.04866 -1.28727,-3.51016 l -0.46834,-2.65728 2.73217,0.7125 c 10.5014,2.73859 25.10968,7.51337 35.60333,11.63708 1.71758,0.67496 1.73529,0.73878 0.36122,1.30186 -2.59976,1.06535 -13.5348,0.63619 -19.17853,-0.75268 z m -104.639638,-5.7868 c -1.743589,-0.36985 -3.291985,-0.79429 -3.440885,-0.94319 -0.459352,-0.45935 35.943543,-13.40919 40.927083,-14.55926 7.80625,-1.80148 13.19994,-1.10305 15.81286,2.04759 0.86507,1.04311 0.82489,1.40567 -0.29259,2.64047 -0.75051,0.82931 -2.21977,1.43133 -3.49322,1.43133 -1.20885,0 -6.44132,1.43938 -11.62774,3.19863 -5.18641,1.75923 -11.86809,3.88508 -14.84817,4.72408 -6.14857,1.73104 -18.169016,2.49302 -23.037338,1.46035 z m 120.567178,0.29798 c -5.86935,-1.07844 -13.09609,-3.10936 -22.01682,-6.18736 -5.56903,-1.92153 -11.16509,-3.49368 -12.43569,-3.49368 -2.87362,0 -5.0446,-2.51784 -3.6358,-4.21672 1.33224,-1.60657 5.19946,-3.00901 8.26431,-2.99704 4.80019,0.0188 11.67997,2.01204 30.41696,8.81269 15.16288,5.50341 18.00595,6.74871 16.6162,7.27805 -1.89789,0.72289 -14.45729,1.3097 -17.20916,0.80406 z"
         id="path5272"
         inkscape:connector-curvature="0" /></g></g><g
     id="g5707"
     transform="translate(43.661904,7.7077379)"
     style="fill:#ffcc00"><polygon
       transform="matrix(0.33002299,0,0,0.33002299,221.5474,320.92604)"
       id="polygon4188"
       points="228,453.6 232,429.6 214.4,412.8 239.2,408.8 249.6,387.2 260.8,408.8 284.8,412.8 267.2,429.6 271.2,453.6 249.6,442.4 "
       style="fill:#ffcc00" /><polygon
       style="fill:#ffcc00"
       points="267.2,429.6 271.2,453.6 249.6,442.4 228,453.6 232,429.6 214.4,412.8 239.2,408.8 249.6,387.2 260.8,408.8 284.8,412.8 "
       id="polygon5703"
       transform="matrix(0.33002299,0,0,0.33002299,242.07778,310.42689)" /><polygon
       transform="matrix(0.33002299,0,0,0.33002299,261.7416,299.32809)"
       id="polygon5705"
       points="260.8,408.8 284.8,412.8 267.2,429.6 271.2,453.6 249.6,442.4 228,453.6 232,429.6 214.4,412.8 239.2,408.8 249.6,387.2 "
       style="fill:#ffcc00" /></g></svg>